<svg width="40" height="40" viewBox="0 0 40 40" fill="none" xmlns="http://www.w3.org/2000/svg">
<path d="M16.6667 30C19.7433 30 22.5717 28.9416 24.8283 27.1866L32.155 34.5133L34.5117 32.1566L27.185 24.83C28.9417 22.5716 30 19.7433 30 16.6666C30 9.31498 24.0183 3.33331 16.6667 3.33331C9.315 3.33331 3.33333 9.31498 3.33333 16.6666C3.33333 24.0183 9.315 30 16.6667 30ZM16.6667 6.66665C22.1817 6.66665 26.6667 11.1516 26.6667 16.6666C26.6667 22.1816 22.1817 26.6666 16.6667 26.6666C11.1517 26.6666 6.66666 22.1816 6.66666 16.6666C6.66666 11.1516 11.1517 6.66665 16.6667 6.66665Z" fill="black"/>
</svg>
